<?xml version="1.0" encoding="utf-8"?>
<!-- Generator: Adobe Illustrator 21.0.0, SVG Export Plug-In . SVG Version: 6.00 Build 0)  -->
<svg version="1.1" id="Layer_1" xmlns="http://www.w3.org/2000/svg" xmlns:xlink="http://www.w3.org/1999/xlink" x="0px" y="0px"
	 viewBox="0 0 84 52" style="enable-background:new 0 0 84 52;" width="160" height="100" xml:space="preserve">
<style type="text/css">
	.st0{fill:#1D305D;}
</style>
<g>
	<g>
		<path class="st0" d="M42,34c18.2,0,33-7.6,33-17C75,7.6,60.2,0,42,0C23.8,0,9,7.6,9,17C9,26.4,23.8,34,42,34z M48.2,25.7
			c-0.5,1.3-1.5,4-3.7,5.1c-0.7,0.3-1.5,0.5-2.2,0.5c-0.2,0-0.3,0-0.3,0c-6.1,0-11.8-0.9-16.5-2.3c0,0-0.1-0.1-0.2-0.1
			c-0.4-0.1-0.7-0.4-0.7-0.6c0-0.2,0.1-0.4,0.3-0.5c0.1-0.1,0.2-0.2,0.3-0.3c1.1-0.9,4.4-3.3,10.6-5.7c2.2-0.8,4.9-1.9,7.8-2.5
			C45.3,18.9,51.5,18,48.2,25.7z M64.9,8.5c0.1-0.2,0.3-0.4,0.6-0.4c0.2,0,0.4,0,0.7,0.2c3.9,2.4,6.2,5.4,6.2,8.6
			c0,5.9-7.5,10.9-18.2,13.1c-0.7,0.1-1.1,0.1-1.3,0c-0.1-0.1-0.1-0.3,0-0.5c0.1-0.1,0.1-0.2,0.3-0.4C58.9,22.2,63.4,12,64.6,9.1
			C64.7,8.9,64.8,8.7,64.9,8.5z M35.9,8.3c0.6-1.3,1.5-4,3.7-5.1c0.7-0.3,1.5-0.5,2.2-0.5c0.2,0,0.3,0,0.3,0
			c6.1,0,11.8,0.8,16.5,2.3c0,0,0.1,0.1,0.2,0.1c0.4,0.1,0.7,0.3,0.7,0.6c0,0.2-0.1,0.4-0.3,0.5c-0.1,0.1-0.2,0.2-0.3,0.3
			c-1.1,0.9-4.4,3.3-10.6,5.7c-2.2,0.8-4.9,1.9-7.8,2.5C38.8,15,32.6,16,35.9,8.3z M29.9,3.9c0.7-0.1,1.1-0.1,1.3,0
			c0.1,0.1,0.1,0.3,0,0.5c-0.1,0.1-0.2,0.2-0.3,0.4C25.1,11.8,20.6,22,19.4,24.9c-0.1,0.2-0.2,0.4-0.3,0.5c-0.1,0.2-0.3,0.4-0.6,0.4
			c-0.2,0-0.4,0-0.7-0.2c-3.9-2.4-6.2-5.4-6.2-8.6C11.7,11.1,19.2,6.1,29.9,3.9z M8.1,44.6H2.9V40H0v12h2.9v-4.8h5.3V52H11V40H8.1
			V44.6z M18.6,44.8l-3-4.8h-3.4l5,7.8V52h2.9v-4.2l5-7.8h-3.4L18.6,44.8z M34.4,48.8c0,0.3-0.3,0.6-0.6,0.6h-4.6V40h-2.9v12h8.6
			c0.8,0,1.4-0.2,1.8-0.7c0.4-0.4,0.7-1,0.7-1.8V40h-2.9V48.8z M48.5,40h-8.6v12h2.9v-9.4h4.6c0.4,0,0.6,0.3,0.6,0.6V52H51v-9.5
			c0-0.8-0.2-1.4-0.7-1.8C49.9,40.2,49.3,40,48.5,40z M62.2,40h-8.6v12h8.6c0.8,0,1.4-0.2,1.8-0.7c0.4-0.4,0.7-1,0.7-1.8v-7.1
			c0-0.8-0.2-1.4-0.7-1.8C63.6,40.2,63,40,62.2,40z M61.8,48.8c0,0.3-0.2,0.6-0.6,0.6h-4.6v-6.8h4.6c0.4,0,0.6,0.3,0.6,0.6V48.8z
			 M67.9,40.7c-0.4,0.4-0.7,1-0.7,1.8V52h2.9v-3.7h5.3V52h2.9V40h-8.5C69,40,68.4,40.2,67.9,40.7z M70.1,43.2c0-0.3,0.2-0.6,0.6-0.6
			h4.6v3.1h-5.3V43.2z M81.1,40v12H84V40H81.1z"/>
	</g>
</g>
</svg>
